# xmcd CD database file
#
# Track frame offsets:
#	150
#	19888
#	36195
#	58997
#	77214
#	94726
#	114283
#	126924
#	143619
#	162172
#	183161
#	204135
#
# Disc length: 2993 seconds
#
# Revision: 0
# Processed by: cddbd v1.5.2PL0 Copyright (c) Steve Scherf et al.
# Submitted via: CDex 1.70beta2
#
DISCID=990baf0c
DTITLE=The Audreys - When The Flood Comes
DYEAR=2008
DGENRE=Blues
TTITLE0=Chelsea Blues
TTITLE1=Head So Heavy
TTITLE2=Paradise City
TTITLE3=Lay Me Down
TTITLE4=Closing Time
TTITLE5=When The Flood Comes
TTITLE6=Anchor
TTITLE7=Sally and The Preacher
TTITLE8=Small Things
TTITLE9=Here He Lies
TTITLE10=Songbird
TTITLE11=More To A Sinner
EXTD=YEAR: 2008
EXTT0=
EXTT1=
EXTT2=
EXTT3=
EXTT4=
EXTT5=
EXTT6=
EXTT7=
EXTT8=
EXTT9=
EXTT10=
EXTT11=
PLAYORDER=
